<svg width="119" height="64" viewBox="0 0 119 64" fill="none" xmlns="http://www.w3.org/2000/svg">
<g clip-path="url(#clip0_2140_27458)">
<path d="M62.2444 35.3211C62.2444 29.9733 66.6135 25.6367 72.0086 25.6367C77.4037 25.6367 81.7728 29.9733 81.7728 35.3211C81.7728 40.669 77.4037 45.0055 72.0086 45.0055C66.6135 45.0055 62.2444 40.669 62.2444 35.3211ZM72.0086 39.1949C74.1632 39.1949 75.916 37.4637 75.916 35.3211C75.916 33.1786 74.1717 31.4474 72.0086 31.4474C69.8454 31.4474 68.1012 33.1786 68.1012 35.3211C68.1012 37.4637 69.8454 39.1949 72.0086 39.1949Z" fill="#231916"/>
<path d="M0.0256502 19.9976L0 25.234H10.6021L10.585 30.8904H16.7154V25.234H25.5647V19.9976H0.0256502Z" fill="#231916"/>
<path d="M3.1123 26.9053H9.11446V36.0155H22.6578V41.2519H3.1123V26.9053Z" fill="#231916"/>
<path d="M49.0691 0.585769L55.0627 0.560059V6.72208H59.7738V12.0185H55.1396V21.2915H49.0691V0.585769Z" fill="#231916"/>
<path d="M34.4739 22.8511H55.1394V38.389H49.0689V28.0961H34.4739V22.8511Z" fill="#231916"/>
<path d="M81.8757 6.00192V0.645508H62.2703V17.7346H68.9821V19.9372H60.1328V25.5935H83.9533V19.9372H75.104V17.7346H81.8757V12.4382H68.3152V6.00192H81.8757Z" fill="#231916"/>
<path d="M86.501 0.645508H92.5459V14.5808H103.789V19.9372H86.501V0.645508Z" fill="#231916"/>
<path d="M99.6001 7.02178V11.9583H105.722V27.3762H111.365V0.645508H105.722V7.02178H99.6001Z" fill="#231916"/>
<path d="M113.357 0.662598H119V27.3932L113.357 27.3761V0.662598Z" fill="#231916"/>
<path d="M22.6578 0.585938V18.4464H3.1123V0.585938H22.6492H22.6578ZM9.11446 5.88236V13.1499H16.7155V5.88236H9.11446Z" fill="#231916"/>
<path d="M43.52 9.04455C44.1612 10.2272 44.6486 11.6928 44.6486 13.1326C44.6486 17.7434 40.9207 21.4886 36.3122 21.4886C31.7037 21.4886 27.9759 17.7519 27.9759 13.1326C27.9759 11.6928 28.3949 10.2272 29.0361 9.04455H25.8298V3.73956H33.0547V0.5H39.0397V3.77384H46.8545V9.04455H43.5114H43.52ZM33.4223 13.1326C33.4223 14.7952 34.7647 16.1407 36.4234 16.1407C38.0821 16.1407 39.4245 14.7952 39.4245 13.1326C39.4245 11.4699 38.0821 10.1244 36.4234 10.1244C34.7647 10.1244 33.4223 11.4699 33.4223 13.1326Z" fill="#231916"/>
<path d="M4.10414 56.438H1.77852V60.4661H0.230957V50.2246H4.10414C6.09631 50.2246 7.37882 51.5444 7.37882 53.3356C7.37882 55.1268 6.10486 56.4466 4.10414 56.4466V56.438ZM4.01864 51.613H1.77852V55.024H4.01864C5.09595 55.024 5.82271 54.4069 5.82271 53.327C5.82271 52.2472 5.0874 51.613 4.01864 51.613Z" fill="#9FA0A0"/>
<path d="M13.9024 60.4661V59.7291C13.3979 60.2776 12.6968 60.5518 11.9615 60.5518C11.2262 60.5518 10.602 60.3033 10.166 59.8919C9.61022 59.3434 9.43066 58.6578 9.43066 57.8351V53.1729H10.8927V57.6208C10.8927 58.7607 11.5425 59.2492 12.3548 59.2492C13.167 59.2492 13.8596 58.7435 13.8596 57.6208V53.1729H15.3217V60.4661H13.8853H13.9024Z" fill="#9FA0A0"/>
<path d="M23.2221 59.9007C22.8202 60.3035 22.1704 60.5435 21.4437 60.5435C20.6571 60.5435 20.0671 60.3378 19.5199 59.6779V60.4578H18.0835V50.2163H19.5456V53.9015C20.0757 53.2673 20.6827 53.0788 21.4522 53.0788C22.1875 53.0788 22.8117 53.3273 23.2135 53.7215C23.9489 54.4586 24.0344 55.6927 24.0344 56.7983C24.0344 57.9038 23.9489 59.1551 23.2135 59.8921L23.2221 59.9007ZM21.0675 54.39C19.7508 54.39 19.5456 55.5127 19.5456 56.8068C19.5456 58.1009 19.7422 59.2408 21.0675 59.2408C22.3927 59.2408 22.5723 58.1009 22.5723 56.8068C22.5723 55.5127 22.3842 54.39 21.0675 54.39Z" fill="#9FA0A0"/>
<path d="M28.3948 60.4661C27.0011 60.4661 26.4026 59.5319 26.4026 58.4521V50.2246H27.8647V58.3664C27.8647 58.9234 28.0699 59.2148 28.6513 59.2148H29.3011V60.4661H28.3948Z" fill="#9FA0A0"/>
<path d="M31.2847 51.7329V50.1816H32.8322V51.7329H31.2847ZM31.3274 60.466V53.1727H32.7895V60.466H31.3274Z" fill="#9FA0A0"/>
<path d="M37.8942 60.5516C36.7057 60.5516 35.6968 60.3459 34.8333 59.4975L35.7909 58.5376C36.3808 59.1461 37.1674 59.3004 37.8856 59.3004C38.7748 59.3004 39.4759 58.9833 39.4759 58.2976C39.4759 57.8091 39.2023 57.492 38.5012 57.432L37.3384 57.3292C35.979 57.2178 35.1838 56.5921 35.1838 55.3152C35.1838 53.8925 36.4065 53.0869 37.9284 53.0869C39.0228 53.0869 39.9547 53.3183 40.6302 53.9097L39.7153 54.8438C39.2536 54.4582 38.6124 54.3125 37.9198 54.3125C37.0477 54.3125 36.6031 54.6981 36.6031 55.2466C36.6031 55.6751 36.834 56.0094 37.6035 56.0779L38.7492 56.1808C40.1086 56.2922 40.9124 56.9435 40.9124 58.2376C40.9124 59.7632 39.6213 60.5516 37.8856 60.5516H37.8942Z" fill="#9FA0A0"/>
<path d="M47.53 60.4661V55.9924C47.53 54.8868 46.8887 54.3983 46.0679 54.3983C45.2471 54.3983 44.5888 54.904 44.5888 55.9924V60.4661H43.1267V50.2246H44.5888V53.9098C45.0932 53.3613 45.7516 53.0871 46.4698 53.0871C48.0943 53.0871 48.9921 54.1841 48.9921 55.761V60.4661H47.53Z" fill="#9FA0A0"/>
<path d="M51.6252 51.7329V50.1816H53.1728V51.7329H51.6252ZM51.668 60.466V53.1727H53.1301V60.466H51.668Z" fill="#9FA0A0"/>
<path d="M60.321 60.4659V56.0179C60.321 54.8781 59.6712 54.3896 58.859 54.3896C58.0467 54.3896 57.3542 54.8952 57.3542 56.0179V60.4659H55.8921V53.1726H57.3285V53.9097C57.833 53.3612 58.5341 53.0869 59.2694 53.0869C60.0047 53.0869 60.6288 53.3355 61.0649 53.7468C61.6206 54.2953 61.8002 54.9809 61.8002 55.8037V60.4659H60.3381H60.321Z" fill="#9FA0A0"/>
<path d="M66.896 63.4998C65.793 63.4998 65.0833 63.2427 64.3309 62.54L65.2629 61.6058C65.7246 62.0343 66.1265 62.2486 66.8447 62.2486C68.0759 62.2486 68.5547 61.3744 68.5547 60.3888V59.4547C68.0246 60.0889 67.4175 60.286 66.6737 60.286C65.9298 60.286 65.3398 60.0374 64.938 59.6346C64.2369 58.9319 64.1172 57.912 64.1172 56.6693C64.1172 55.4266 64.2283 54.4068 64.938 53.704C65.3398 53.3012 65.9555 53.0698 66.6908 53.0698C67.4688 53.0698 68.0502 53.2669 68.5974 53.9354V53.1555H70.0167V60.406C70.0167 62.1886 68.8368 63.4827 66.9045 63.4827L66.896 63.4998ZM67.067 54.3896C65.7503 54.3896 65.5707 55.5295 65.5707 56.6779C65.5707 57.8263 65.7417 58.9662 67.067 58.9662C68.3922 58.9662 68.5461 57.8263 68.5461 56.6779C68.5461 55.5295 68.3922 54.3896 67.067 54.3896Z" fill="#9FA0A0"/>
<path d="M86.219 59.3863C85.441 60.209 84.4834 60.5518 83.406 60.5518C82.3287 60.5518 81.4224 60.1662 80.7213 59.4548C79.721 58.4521 79.7295 57.3123 79.7295 55.3411C79.7295 53.3699 79.7124 52.2387 80.7213 51.2274C81.4224 50.5246 82.3116 50.1304 83.406 50.1304C85.5692 50.1304 86.8346 51.553 87.1253 53.3099H85.5607C85.3042 52.1872 84.5603 51.5273 83.406 51.5273C82.799 51.5273 82.2603 51.7759 81.9012 52.1615C81.3968 52.71 81.2856 53.2842 81.2856 55.3411C81.2856 57.398 81.3968 57.9893 81.9012 58.5378C82.2603 58.9235 82.8075 59.1549 83.406 59.1549C84.0815 59.1549 84.6715 58.8977 85.0733 58.435C85.4495 58.0064 85.5863 57.4837 85.5863 56.8237V56.2495H83.406V54.9297H87.1339V56.4981C87.1339 57.8179 86.8859 58.6749 86.219 59.3863Z" fill="#9FA0A0"/>
<path d="M93.6748 54.8784C93.3413 54.5441 93.0848 54.3899 92.5804 54.3899C91.7938 54.3899 91.1269 55.0241 91.1269 56.0268V60.4576H89.6648V53.1643H91.1012V53.9528C91.4774 53.4386 92.2213 53.0786 93.0421 53.0786C93.7432 53.0786 94.2733 53.2672 94.7777 53.7728L93.6748 54.8784Z" fill="#9FA0A0"/>
<path d="M100.806 59.6863C100.335 60.1748 99.6172 60.5519 98.6254 60.5519C97.6336 60.5519 96.9324 60.1748 96.4622 59.6863C95.7696 58.9664 95.5986 58.0494 95.5986 56.8067C95.5986 55.564 95.7696 54.6641 96.4622 53.9442C96.9324 53.4557 97.6421 53.0786 98.6254 53.0786C99.6086 53.0786 100.335 53.4557 100.806 53.9442C101.498 54.6641 101.669 55.5811 101.669 56.8067C101.669 58.0322 101.498 58.9664 100.806 59.6863ZM99.7027 54.8098C99.4291 54.5356 99.0614 54.3899 98.6254 54.3899C98.1893 54.3899 97.8388 54.5356 97.5652 54.8098C97.1205 55.2555 97.0607 56.0182 97.0607 56.8067C97.0607 57.5951 97.1205 58.3579 97.5652 58.8035C97.8388 59.0778 98.1979 59.2321 98.6254 59.2321C99.0529 59.2321 99.4291 59.0778 99.7027 58.8035C100.147 58.3579 100.207 57.5951 100.207 56.8067C100.207 56.0182 100.147 55.2555 99.7027 54.8098Z" fill="#9FA0A0"/>
<path d="M108.458 60.4661V59.7291C107.954 60.2776 107.252 60.5518 106.517 60.5518C105.782 60.5518 105.158 60.3033 104.722 59.8919C104.157 59.3434 103.986 58.6578 103.986 57.8351V53.1729H105.448V57.6208C105.448 58.7607 106.098 59.2492 106.91 59.2492C107.723 59.2492 108.415 58.7435 108.415 57.6208V53.1729H109.877V60.4661H108.441H108.458Z" fill="#9FA0A0"/>
<path d="M117.786 59.9005C117.384 60.3033 116.751 60.5433 116.024 60.5433C115.246 60.5433 114.648 60.3376 114.118 59.712V63.4058H112.656V53.1643H114.092V53.9442C114.639 53.2843 115.229 53.0786 116.016 53.0786C116.751 53.0786 117.393 53.3272 117.794 53.7214C118.53 54.4584 118.615 55.6925 118.615 56.7981C118.615 57.9037 118.53 59.1549 117.794 59.892L117.786 59.9005ZM115.631 54.3899C114.314 54.3899 114.109 55.5126 114.109 56.8067C114.109 58.1008 114.314 59.2406 115.631 59.2406C116.948 59.2406 117.136 58.1008 117.136 56.8067C117.136 55.5126 116.948 54.3899 115.631 54.3899Z" fill="#9FA0A0"/>
</g>
<defs>
<clipPath id="clip0_2140_27458">
<rect width="119" height="63" fill="white" transform="translate(0 0.5)"/>
</clipPath>
</defs>
</svg>
